<mxfile host="app.diagrams.net" modified="2023-11-14T20:22:53.341Z" agent="Mozilla/5.0 (Windows NT 10.0; Win64; x64) AppleWebKit/537.36 (KHTML, like Gecko) Chrome/119.0.0.0 Safari/537.36 Edg/119.0.0.0" etag="Pp-iWfjdLTmEM4InG0wz" version="22.1.1" type="github">
  <diagram id="C5RBs43oDa-KdzZeNtuy" name="Page-1">
    <mxGraphModel dx="746" dy="1624" grid="1" gridSize="10" guides="1" tooltips="1" connect="1" arrows="1" fold="1" page="1" pageScale="1" pageWidth="827" pageHeight="1169" math="0" shadow="0">
      <root>
        <mxCell id="WIyWlLk6GJQsqaUBKTNV-0" />
        <mxCell id="WIyWlLk6GJQsqaUBKTNV-1" parent="WIyWlLk6GJQsqaUBKTNV-0" />
        <mxCell id="nasBl9K5YajOh5_W6PYL-2" style="edgeStyle=orthogonalEdgeStyle;rounded=0;orthogonalLoop=1;jettySize=auto;html=1;exitX=1;exitY=0.5;exitDx=0;exitDy=0;strokeColor=#028090;fontColor=#E4FDE1;fillColor=#F45B69;" parent="WIyWlLk6GJQsqaUBKTNV-1" source="nasBl9K5YajOh5_W6PYL-0" target="nasBl9K5YajOh5_W6PYL-3" edge="1">
          <mxGeometry relative="1" as="geometry">
            <mxPoint x="220" y="150" as="targetPoint" />
          </mxGeometry>
        </mxCell>
        <mxCell id="nasBl9K5YajOh5_W6PYL-0" value="&lt;font color=&quot;#ffffff&quot;&gt;&quot;Enter a number.&quot;&lt;/font&gt;" style="shape=parallelogram;perimeter=parallelogramPerimeter;whiteSpace=wrap;html=1;fixedSize=1;fillColor=#007FFF;labelBackgroundColor=none;strokeColor=#028090;fontColor=#E4FDE1;" parent="WIyWlLk6GJQsqaUBKTNV-1" vertex="1">
          <mxGeometry x="402.5" y="30" width="120" height="60" as="geometry" />
        </mxCell>
        <mxCell id="nasBl9K5YajOh5_W6PYL-3" value="&amp;nbsp;n" style="shape=card;whiteSpace=wrap;html=1;strokeColor=#028090;fontColor=#E4FDE1;fillColor=#663300;" parent="WIyWlLk6GJQsqaUBKTNV-1" vertex="1">
          <mxGeometry x="580" y="35" width="46.25" height="50" as="geometry" />
        </mxCell>
        <mxCell id="nasBl9K5YajOh5_W6PYL-9" value="No" style="edgeStyle=orthogonalEdgeStyle;rounded=0;html=1;jettySize=auto;orthogonalLoop=1;fontSize=11;endArrow=block;endFill=0;endSize=8;strokeWidth=1;shadow=0;labelBackgroundColor=none;strokeColor=#028090;fontColor=default;exitX=0.5;exitY=1;exitDx=0;exitDy=0;entryX=0.5;entryY=0;entryDx=0;entryDy=0;" parent="WIyWlLk6GJQsqaUBKTNV-1" source="WIyWlLk6GJQsqaUBKTNV-10" target="HAaVU6GZJj5030VO2g9M-15" edge="1">
          <mxGeometry y="10" relative="1" as="geometry">
            <mxPoint as="offset" />
            <mxPoint x="290" y="240" as="sourcePoint" />
            <mxPoint x="364" y="590" as="targetPoint" />
            <Array as="points" />
          </mxGeometry>
        </mxCell>
        <mxCell id="nasBl9K5YajOh5_W6PYL-11" style="edgeStyle=orthogonalEdgeStyle;rounded=0;orthogonalLoop=1;jettySize=auto;html=1;exitX=1;exitY=0.5;exitDx=0;exitDy=0;strokeColor=#028090;fontColor=#E4FDE1;fillColor=#F45B69;entryX=0;entryY=0.5;entryDx=0;entryDy=0;exitPerimeter=0;" parent="WIyWlLk6GJQsqaUBKTNV-1" source="nasBl9K5YajOh5_W6PYL-3" target="nasBl9K5YajOh5_W6PYL-21" edge="1">
          <mxGeometry relative="1" as="geometry">
            <mxPoint x="399.79310344827593" y="360" as="targetPoint" />
          </mxGeometry>
        </mxCell>
        <mxCell id="nasBl9K5YajOh5_W6PYL-17" style="edgeStyle=orthogonalEdgeStyle;rounded=0;orthogonalLoop=1;jettySize=auto;html=1;exitX=0;exitY=0.5;exitDx=0;exitDy=0;strokeColor=#028090;fontColor=#E4FDE1;fillColor=#F45B69;entryX=1;entryY=0.5;entryDx=0;entryDy=0;" parent="WIyWlLk6GJQsqaUBKTNV-1" source="nasBl9K5YajOh5_W6PYL-14" target="HAaVU6GZJj5030VO2g9M-10" edge="1">
          <mxGeometry relative="1" as="geometry">
            <mxPoint x="540" y="298" as="targetPoint" />
          </mxGeometry>
        </mxCell>
        <mxCell id="nasBl9K5YajOh5_W6PYL-14" value="t+=(1/n)" style="rounded=0;whiteSpace=wrap;html=1;strokeColor=#028090;fontColor=#E4FDE1;fillColor=#F45B69;" parent="WIyWlLk6GJQsqaUBKTNV-1" vertex="1">
          <mxGeometry x="670" y="278.75" width="70" height="38.75" as="geometry" />
        </mxCell>
        <mxCell id="nasBl9K5YajOh5_W6PYL-21" value="n&amp;gt;=1" style="rhombus;whiteSpace=wrap;html=1;strokeColor=#028090;fontColor=#E4FDE1;fillColor=#FC68A8;" parent="WIyWlLk6GJQsqaUBKTNV-1" vertex="1">
          <mxGeometry x="700" y="15" width="100" height="90" as="geometry" />
        </mxCell>
        <mxCell id="nasBl9K5YajOh5_W6PYL-31" value="END" style="ellipse;whiteSpace=wrap;html=1;strokeColor=#028090;fontColor=#E4FDE1;fillColor=#0000CC;" parent="WIyWlLk6GJQsqaUBKTNV-1" vertex="1">
          <mxGeometry x="490" y="583.13" width="90" height="55" as="geometry" />
        </mxCell>
        <mxCell id="HAaVU6GZJj5030VO2g9M-2" style="edgeStyle=orthogonalEdgeStyle;shape=connector;rounded=0;orthogonalLoop=1;jettySize=auto;html=1;exitX=0.5;exitY=1;exitDx=0;exitDy=0;entryX=0.5;entryY=0;entryDx=0;entryDy=0;labelBackgroundColor=default;strokeColor=#028090;align=center;verticalAlign=middle;fontFamily=Helvetica;fontSize=11;fontColor=#E4FDE1;endArrow=classic;fillColor=#F45B69;" parent="WIyWlLk6GJQsqaUBKTNV-1" source="nasBl9K5YajOh5_W6PYL-33" target="HAaVU6GZJj5030VO2g9M-0" edge="1">
          <mxGeometry relative="1" as="geometry" />
        </mxCell>
        <mxCell id="nasBl9K5YajOh5_W6PYL-33" value="START" style="ellipse;whiteSpace=wrap;html=1;strokeColor=#028090;fontColor=#E4FDE1;fillColor=#0000CC;" parent="WIyWlLk6GJQsqaUBKTNV-1" vertex="1">
          <mxGeometry x="135" y="-70" width="90" height="55" as="geometry" />
        </mxCell>
        <mxCell id="WIyWlLk6GJQsqaUBKTNV-10" value="n&amp;gt;0" style="rhombus;whiteSpace=wrap;html=1;shadow=0;fontFamily=Helvetica;fontSize=12;align=center;strokeWidth=1;spacing=6;spacingTop=-4;labelBackgroundColor=none;fillColor=#FC68A8;strokeColor=#028090;fontColor=#E4FDE1;" parent="WIyWlLk6GJQsqaUBKTNV-1" vertex="1">
          <mxGeometry x="314" y="387.5" width="100" height="80" as="geometry" />
        </mxCell>
        <mxCell id="Hs0-DUQ-DO4xvA26hf-c-5" value="Yes" style="edgeStyle=orthogonalEdgeStyle;rounded=0;html=1;jettySize=auto;orthogonalLoop=1;fontSize=11;endArrow=block;endFill=0;endSize=8;strokeWidth=1;shadow=0;labelBackgroundColor=none;strokeColor=#028090;fontColor=default;exitX=1;exitY=0.5;exitDx=0;exitDy=0;entryX=0.5;entryY=0;entryDx=0;entryDy=0;" parent="WIyWlLk6GJQsqaUBKTNV-1" source="nasBl9K5YajOh5_W6PYL-21" target="HAaVU6GZJj5030VO2g9M-3" edge="1">
          <mxGeometry x="0.2335" y="-15" relative="1" as="geometry">
            <mxPoint as="offset" />
            <mxPoint x="1022.5" y="120" as="sourcePoint" />
            <mxPoint x="860" y="500" as="targetPoint" />
            <Array as="points" />
          </mxGeometry>
        </mxCell>
        <mxCell id="Hs0-DUQ-DO4xvA26hf-c-7" value="No" style="edgeStyle=orthogonalEdgeStyle;rounded=0;html=1;jettySize=auto;orthogonalLoop=1;fontSize=11;endArrow=block;endFill=0;endSize=8;strokeWidth=1;shadow=0;labelBackgroundColor=none;strokeColor=#028090;fontColor=default;exitX=0.5;exitY=1;exitDx=0;exitDy=0;entryX=0.5;entryY=0;entryDx=0;entryDy=0;" parent="WIyWlLk6GJQsqaUBKTNV-1" source="nasBl9K5YajOh5_W6PYL-21" target="HAaVU6GZJj5030VO2g9M-4" edge="1">
          <mxGeometry y="10" relative="1" as="geometry">
            <mxPoint as="offset" />
            <mxPoint x="670" y="720" as="sourcePoint" />
            <mxPoint x="750" y="350" as="targetPoint" />
            <Array as="points" />
          </mxGeometry>
        </mxCell>
        <mxCell id="HAaVU6GZJj5030VO2g9M-7" style="edgeStyle=orthogonalEdgeStyle;shape=connector;rounded=0;orthogonalLoop=1;jettySize=auto;html=1;exitX=1;exitY=0.5;exitDx=0;exitDy=0;entryX=0;entryY=0.5;entryDx=0;entryDy=0;labelBackgroundColor=default;strokeColor=#028090;align=center;verticalAlign=middle;fontFamily=Helvetica;fontSize=11;fontColor=#E4FDE1;endArrow=classic;fillColor=#F45B69;" parent="WIyWlLk6GJQsqaUBKTNV-1" source="HAaVU6GZJj5030VO2g9M-0" target="HAaVU6GZJj5030VO2g9M-6" edge="1">
          <mxGeometry relative="1" as="geometry" />
        </mxCell>
        <mxCell id="HAaVU6GZJj5030VO2g9M-0" value="&lt;font color=&quot;#ffffff&quot;&gt;string=a&lt;/font&gt;" style="shape=internalStorage;whiteSpace=wrap;html=1;dx=15;dy=15;rounded=1;arcSize=8;strokeWidth=2;fillColor=#FFCCE6;strokeColor=#FFFFFF;" parent="WIyWlLk6GJQsqaUBKTNV-1" vertex="1">
          <mxGeometry x="130" y="35" width="100" height="50" as="geometry" />
        </mxCell>
        <mxCell id="HAaVU6GZJj5030VO2g9M-9" style="edgeStyle=orthogonalEdgeStyle;shape=connector;rounded=0;orthogonalLoop=1;jettySize=auto;html=1;exitX=0;exitY=0.5;exitDx=0;exitDy=0;entryX=1;entryY=0.5;entryDx=0;entryDy=0;labelBackgroundColor=default;strokeColor=#028090;align=center;verticalAlign=middle;fontFamily=Helvetica;fontSize=11;fontColor=#E4FDE1;endArrow=classic;fillColor=#F45B69;" parent="WIyWlLk6GJQsqaUBKTNV-1" source="HAaVU6GZJj5030VO2g9M-3" target="nasBl9K5YajOh5_W6PYL-14" edge="1">
          <mxGeometry relative="1" as="geometry" />
        </mxCell>
        <mxCell id="HAaVU6GZJj5030VO2g9M-3" value="&lt;font color=&quot;#ffffff&quot;&gt;t=0&lt;/font&gt;" style="rounded=0;whiteSpace=wrap;html=1;fillColor=#F45B69;strokeColor=#028090;" parent="WIyWlLk6GJQsqaUBKTNV-1" vertex="1">
          <mxGeometry x="827" y="280" width="72.5" height="37.5" as="geometry" />
        </mxCell>
        <mxCell id="HAaVU6GZJj5030VO2g9M-4" value="&lt;font color=&quot;#ffffff&quot;&gt;&quot;Enter a number greater than 0.&quot;&lt;/font&gt;" style="shape=parallelogram;perimeter=parallelogramPerimeter;whiteSpace=wrap;html=1;fixedSize=1;fillColor=#007FFF;labelBackgroundColor=none;strokeColor=#028090;fontColor=#E4FDE1;" parent="WIyWlLk6GJQsqaUBKTNV-1" vertex="1">
          <mxGeometry x="690" y="197.5" width="120" height="60" as="geometry" />
        </mxCell>
        <mxCell id="HAaVU6GZJj5030VO2g9M-5" style="edgeStyle=orthogonalEdgeStyle;shape=connector;rounded=0;orthogonalLoop=1;jettySize=auto;html=1;exitX=0;exitY=0.5;exitDx=0;exitDy=0;entryX=0.5;entryY=1;entryDx=0;entryDy=0;entryPerimeter=0;labelBackgroundColor=default;strokeColor=#028090;align=center;verticalAlign=middle;fontFamily=Helvetica;fontSize=11;fontColor=#E4FDE1;endArrow=classic;fillColor=#F45B69;" parent="WIyWlLk6GJQsqaUBKTNV-1" source="HAaVU6GZJj5030VO2g9M-4" target="nasBl9K5YajOh5_W6PYL-3" edge="1">
          <mxGeometry relative="1" as="geometry" />
        </mxCell>
        <mxCell id="HAaVU6GZJj5030VO2g9M-8" style="edgeStyle=orthogonalEdgeStyle;shape=connector;rounded=0;orthogonalLoop=1;jettySize=auto;html=1;exitX=1;exitY=0.5;exitDx=0;exitDy=0;entryX=0;entryY=0.5;entryDx=0;entryDy=0;labelBackgroundColor=default;strokeColor=#028090;align=center;verticalAlign=middle;fontFamily=Helvetica;fontSize=11;fontColor=#E4FDE1;endArrow=classic;fillColor=#F45B69;" parent="WIyWlLk6GJQsqaUBKTNV-1" source="HAaVU6GZJj5030VO2g9M-6" target="nasBl9K5YajOh5_W6PYL-0" edge="1">
          <mxGeometry relative="1" as="geometry" />
        </mxCell>
        <mxCell id="HAaVU6GZJj5030VO2g9M-6" value="&lt;font color=&quot;#ffffff&quot;&gt;a=&quot; &quot;&lt;/font&gt;" style="rounded=0;whiteSpace=wrap;html=1;strokeColor=#028090;align=center;verticalAlign=middle;fontFamily=Helvetica;fontSize=12;fontColor=default;fillColor=#F45B69;" parent="WIyWlLk6GJQsqaUBKTNV-1" vertex="1">
          <mxGeometry x="290" y="38.75" width="73" height="42.5" as="geometry" />
        </mxCell>
        <mxCell id="HAaVU6GZJj5030VO2g9M-12" style="edgeStyle=orthogonalEdgeStyle;shape=connector;rounded=0;orthogonalLoop=1;jettySize=auto;html=1;exitX=0;exitY=0.5;exitDx=0;exitDy=0;entryX=1;entryY=0.5;entryDx=0;entryDy=0;labelBackgroundColor=default;strokeColor=#028090;align=center;verticalAlign=middle;fontFamily=Helvetica;fontSize=11;fontColor=#E4FDE1;endArrow=classic;fillColor=#F45B69;" parent="WIyWlLk6GJQsqaUBKTNV-1" source="HAaVU6GZJj5030VO2g9M-10" target="HAaVU6GZJj5030VO2g9M-11" edge="1">
          <mxGeometry relative="1" as="geometry" />
        </mxCell>
        <mxCell id="HAaVU6GZJj5030VO2g9M-10" value="a+=(1/n)" style="rounded=0;whiteSpace=wrap;html=1;strokeColor=#028090;fontColor=#E4FDE1;fillColor=#F45B69;" parent="WIyWlLk6GJQsqaUBKTNV-1" vertex="1">
          <mxGeometry x="510" y="277.5" width="70" height="40" as="geometry" />
        </mxCell>
        <mxCell id="HAaVU6GZJj5030VO2g9M-13" style="edgeStyle=orthogonalEdgeStyle;shape=connector;rounded=0;orthogonalLoop=1;jettySize=auto;html=1;exitX=0.5;exitY=1;exitDx=0;exitDy=0;entryX=0.5;entryY=0;entryDx=0;entryDy=0;labelBackgroundColor=default;strokeColor=#028090;align=center;verticalAlign=middle;fontFamily=Helvetica;fontSize=11;fontColor=#E4FDE1;endArrow=classic;fillColor=#F45B69;" parent="WIyWlLk6GJQsqaUBKTNV-1" source="HAaVU6GZJj5030VO2g9M-11" target="WIyWlLk6GJQsqaUBKTNV-10" edge="1">
          <mxGeometry relative="1" as="geometry" />
        </mxCell>
        <mxCell id="HAaVU6GZJj5030VO2g9M-11" value="n--" style="rounded=0;whiteSpace=wrap;html=1;strokeColor=#028090;align=center;verticalAlign=middle;fontFamily=Helvetica;fontSize=11;fontColor=#E4FDE1;fillColor=#F45B69;" parent="WIyWlLk6GJQsqaUBKTNV-1" vertex="1">
          <mxGeometry x="327.5" y="277.5" width="74" height="40" as="geometry" />
        </mxCell>
        <mxCell id="HAaVU6GZJj5030VO2g9M-14" value="Yes" style="edgeStyle=orthogonalEdgeStyle;rounded=0;html=1;jettySize=auto;orthogonalLoop=1;fontSize=11;endArrow=block;endFill=0;endSize=8;strokeWidth=1;shadow=0;labelBackgroundColor=none;strokeColor=#028090;fontColor=default;exitX=1;exitY=0.5;exitDx=0;exitDy=0;entryX=0.5;entryY=1;entryDx=0;entryDy=0;" parent="WIyWlLk6GJQsqaUBKTNV-1" source="WIyWlLk6GJQsqaUBKTNV-10" target="nasBl9K5YajOh5_W6PYL-14" edge="1">
          <mxGeometry x="-0.2718" y="-12" relative="1" as="geometry">
            <mxPoint y="1" as="offset" />
            <mxPoint x="470" y="450" as="sourcePoint" />
            <mxPoint x="533" y="670" as="targetPoint" />
            <Array as="points" />
          </mxGeometry>
        </mxCell>
        <mxCell id="HAaVU6GZJj5030VO2g9M-16" style="edgeStyle=orthogonalEdgeStyle;shape=connector;rounded=0;orthogonalLoop=1;jettySize=auto;html=1;exitX=1;exitY=0.5;exitDx=0;exitDy=0;entryX=0;entryY=0.5;entryDx=0;entryDy=0;labelBackgroundColor=default;strokeColor=#028090;align=center;verticalAlign=middle;fontFamily=Helvetica;fontSize=11;fontColor=#E4FDE1;endArrow=classic;fillColor=#F45B69;" parent="WIyWlLk6GJQsqaUBKTNV-1" source="HAaVU6GZJj5030VO2g9M-15" target="nasBl9K5YajOh5_W6PYL-31" edge="1">
          <mxGeometry relative="1" as="geometry" />
        </mxCell>
        <mxCell id="HAaVU6GZJj5030VO2g9M-15" value="t , a" style="shape=document;whiteSpace=wrap;html=1;boundedLbl=1;strokeColor=#028090;fontColor=#E4FDE1;fillColor=#B266FF;" parent="WIyWlLk6GJQsqaUBKTNV-1" vertex="1">
          <mxGeometry x="337" y="585" width="55" height="51.25" as="geometry" />
        </mxCell>
      </root>
    </mxGraphModel>
  </diagram>
</mxfile>
